<svg width="41" height="40" viewBox="0 0 41 40" fill="none" xmlns="http://www.w3.org/2000/svg">
<g clip-path="url(#clip0_12_1645)">
<path d="M16.5 26L20.5 22.95L24.5 26L23 21.05L27 18.2H22.1L20.5 13L18.9 18.2H14L18 21.05L16.5 26ZM20.5 30C19.1167 30 17.8167 29.7375 16.6 29.2125C15.3833 28.6875 14.325 27.975 13.425 27.075C12.525 26.175 11.8125 25.1167 11.2875 23.9C10.7625 22.6833 10.5 21.3833 10.5 20C10.5 18.6167 10.7625 17.3167 11.2875 16.1C11.8125 14.8833 12.525 13.825 13.425 12.925C14.325 12.025 15.3833 11.3125 16.6 10.7875C17.8167 10.2625 19.1167 10 20.5 10C21.8833 10 23.1833 10.2625 24.4 10.7875C25.6167 11.3125 26.675 12.025 27.575 12.925C28.475 13.825 29.1875 14.8833 29.7125 16.1C30.2375 17.3167 30.5 18.6167 30.5 20C30.5 21.3833 30.2375 22.6833 29.7125 23.9C29.1875 25.1167 28.475 26.175 27.575 27.075C26.675 27.975 25.6167 28.6875 24.4 29.2125C23.1833 29.7375 21.8833 30 20.5 30ZM20.5 28C22.7333 28 24.625 27.225 26.175 25.675C27.725 24.125 28.5 22.2333 28.5 20C28.5 17.7667 27.725 15.875 26.175 14.325C24.625 12.775 22.7333 12 20.5 12C18.2667 12 16.375 12.775 14.825 14.325C13.275 15.875 12.5 17.7667 12.5 20C12.5 22.2333 13.275 24.125 14.825 25.675C16.375 27.225 18.2667 28 20.5 28Z" fill="#49454F"/>
</g>
<defs>
<clipPath id="clip0_12_1645">
<rect x="0.5" width="40" height="40" rx="20" fill="white"/>
</clipPath>
</defs>
</svg>
